# xmcd
#
# Track frame offsets: 
#        150
#        12768
#        33022
#        57226
#        73007
#        88511
#        107300
#        127480
#        139173
#        162236
#        185592
#        201458
#        215351
#        231090
#        251405
#        268865
#        287948
#        305156
#        322845
#
# Disc length: 4656 seconds
#
# Revision: 2
# Processed by: cddbd v1.5.2PL0 Copyright (c) Steve Scherf et al.
# Submitted via: ExactAudioCopy v0.95b3
#
DISCID=1a122e13
DTITLE=Various Artist - Weltberühmt in Österreich 2
DYEAR=2006
DGENRE=Austropop
TTITLE0=Boris Bukowski - Euer Fritze mit der Spritze
TTITLE1=Maria Bill - I mecht landen
TTITLE2=STS - Fürstenfeld
TTITLE3=EAV - Märchenprinz
TTITLE4=Minisex - Rudi gib acht
TTITLE5=Hasi Lang - Ich spiele Leben
TTITLE6=Ganymed - Music Drives Me Crazy
TTITLE7=Schmetterlinge - Tschotscholossa
TTITLE8=Rosachrom - Ich möchte bei den Sternen liegen
TTITLE9=Wilfried - ...und immer wieder geht die Sunn' auf
TTITLE10=Franz Morak - Schizo
TTITLE11=Drahdiwaberl - Mulatschag
TTITLE12=Da Honk - Lullaby
TTITLE13=Wolf - Miss You
TTITLE14=Wolfgang Ambros, Georg Danzer, Steinbäcker and Ostbahn Kurti - 
TTITLE14=Alt und jung
TTITLE15=Reinhard Fendrich - Vü schöner is des G'fühl
TTITLE16=Ausseer Hardbradler - Hoamweh nach B.A.
TTITLE17=Christina Stürmer - Mama Ana Ahabak
TTITLE18=Falco - Jeanny
EXTD=
EXTT0=
EXTT1=
EXTT2=
EXTT3=
EXTT4=
EXTT5=
EXTT6=
EXTT7=
EXTT8=
EXTT9=
EXTT10=
EXTT11=
EXTT12=
EXTT13=
EXTT14=
EXTT15=
EXTT16=
EXTT17=
EXTT18=
PLAYORDER=
